<svg xmlns="http://www.w3.org/2000/svg" width="21" height="20" fill="none" viewBox="0 0 21 20">
    <path fill="#1C3AA9" d="M17.333 6.984c0-.1-.002-.2-.007-.3V1.007l-1.566 1.57A6.971 6.971 0 0 0 10.344 0a6.973 6.973 0 0 0-5.57 2.77l2.568 2.6a3.406 3.406 0 0 1 1.04-1.169c.448-.35 1.083-.637 1.962-.637a.7.7 0 0 1 .248.036 3.384 3.384 0 0 1 2.587 1.562l-1.817 1.82a467.11 467.11 0 0 1 5.971.002"/>
    <path fill="#4285F4" d="M10.303 0c-.1 0-.2.003-.3.007H4.338l1.566 1.57a6.996 6.996 0 0 0-2.57 5.427 6.997 6.997 0 0 0 2.764 5.58l2.595-2.572A3.403 3.403 0 0 1 7.526 8.97c-.35-.45-.636-1.086-.636-1.966 0-.106.012-.189.036-.249a3.392 3.392 0 0 1 1.558-2.592l1.817 1.82c-.009-2.306-.014-4.911.002-5.983"/>
    <path fill="#ABABAB" d="M3.333 7.004c0 .1.003.2.008.3v5.677l1.566-1.57a6.971 6.971 0 0 0 5.416 2.577 6.973 6.973 0 0 0 5.569-2.771l-2.567-2.6a3.406 3.406 0 0 1-1.04 1.17c-.449.35-1.084.636-1.962.636a.7.7 0 0 1-.248-.035 3.384 3.384 0 0 1-2.588-1.562l1.818-1.82c-2.302.008-4.902.014-5.971-.002"/>
    <path fill="#A6A6A6" d="M4.513 16.7c-.17 0-.323.032-.458.097a.95.95 0 0 0-.344.271c-.092.118-.163.26-.213.428a1.992 1.992 0 0 0-.073.558v.594c0 .207.024.394.073.56.05.166.12.308.211.426a.931.931 0 0 0 .766.366c.166 0 .312-.024.436-.073a.837.837 0 0 0 .513-.545c.047-.13.075-.28.084-.445H5.1a1.81 1.81 0 0 1-.053.328.598.598 0 0 1-.11.223.42.42 0 0 1-.185.128.84.84 0 0 1-.278.04.553.553 0 0 1-.299-.077.605.605 0 0 1-.2-.217 1.093 1.093 0 0 1-.11-.32 2.227 2.227 0 0 1-.033-.394v-.598c0-.152.013-.29.04-.413a.977.977 0 0 1 .125-.315.587.587 0 0 1 .515-.274c.098 0 .183.015.253.044.07.028.13.073.176.133a.618.618 0 0 1 .108.225c.025.091.042.2.05.326h.408a1.595 1.595 0 0 0-.082-.46.964.964 0 0 0-.196-.338.808.808 0 0 0-.306-.208 1.113 1.113 0 0 0-.411-.07zm9.942 0c-.17 0-.323.032-.458.097a.95.95 0 0 0-.343.271c-.093.118-.164.26-.214.428a1.994 1.994 0 0 0-.073.558v.594c0 .207.025.394.073.56.05.166.12.308.211.426a.93.93 0 0 0 .767.366c.165 0 .31-.024.435-.073a.837.837 0 0 0 .513-.545c.047-.13.075-.28.084-.445h-.407a1.8 1.8 0 0 1-.053.328.597.597 0 0 1-.11.223.42.42 0 0 1-.185.128.84.84 0 0 1-.277.04.553.553 0 0 1-.3-.077.604.604 0 0 1-.2-.217 1.094 1.094 0 0 1-.11-.32 2.228 2.228 0 0 1-.033-.394v-.598c0-.152.013-.29.04-.413a.977.977 0 0 1 .125-.315.587.587 0 0 1 .515-.274c.098 0 .183.015.253.044.07.028.13.073.176.133a.618.618 0 0 1 .108.225c.025.091.042.2.05.326h.408a1.596 1.596 0 0 0-.082-.46.962.962 0 0 0-.195-.338.809.809 0 0 0-.306-.208 1.113 1.113 0 0 0-.412-.07zm-7.622.044l-1.032 3.212h.414l.248-.838h1.084l.253.838h.414l-1.035-3.212h-.346zm1.817 0v3.212h.402v-1.258h.619c.154 0 .29-.02.41-.064a.779.779 0 0 0 .484-.494c.042-.122.064-.26.064-.414 0-.143-.022-.274-.064-.393a.814.814 0 0 0-.484-.516 1.076 1.076 0 0 0-.41-.073H8.65zm2.287 0v.348h.84v2.864h.404v-2.864h.843v-.348h-2.087zm5.057 0v3.212h.403V18.47h1.29v1.485h.405v-3.212h-.405v1.38h-1.29v-1.38h-.403zm3.626 0l-1.033 3.212h.414l.249-.838h1.083l.253.838H21l-1.035-3.212h-.345zm-10.568.348h.619c.098 0 .182.018.251.053.07.036.128.083.172.142a.567.567 0 0 1 .099.205.903.903 0 0 1 0 .49.527.527 0 0 1-.1.196.448.448 0 0 1-.171.128.612.612 0 0 1-.251.046h-.619v-1.26zm-2.047.217l.438 1.46H6.57l.436-1.46zm12.786 0l.438 1.46h-.874l.436-1.46zm-18.963.216a.445.445 0 0 0-.262.077.617.617 0 0 0-.18.21l-.007-.243H0v2.387h.39v-1.708a.567.567 0 0 1 .156-.24.39.39 0 0 1 .262-.088.834.834 0 0 1 .176.015l-.002-.38a.133.133 0 0 0-.029-.008.437.437 0 0 0-.086-.018.204.204 0 0 0-.04-.004zm1.31 0a.925.925 0 0 0-.328.06.716.716 0 0 0-.282.196 1.01 1.01 0 0 0-.196.353c-.05.144-.075.321-.075.531v.27c0 .182.021.34.064.474a.898.898 0 0 0 .183.333c.08.087.178.151.292.194.115.043.243.064.386.064a1.117 1.117 0 0 0 .493-.11.765.765 0 0 0 .28-.247l-.203-.247a.719.719 0 0 1-.225.196.633.633 0 0 1-.323.075c-.18 0-.32-.058-.416-.174-.096-.117-.143-.303-.143-.558v-.056h1.33v-.227c0-.182-.016-.343-.047-.483a.966.966 0 0 0-.147-.353.64.64 0 0 0-.26-.216.89.89 0 0 0-.383-.075zm0 .335c.085 0 .155.016.211.047.056.03.1.074.132.13a.6.6 0 0 1 .073.2 1.6 1.6 0 0 1 .03.254v.053h-.937c.006-.134.022-.245.048-.333A.594.594 0 0 1 1.8 18a.352.352 0 0 1 .152-.11.55.55 0 0 1 .187-.03z"/>
</svg>
